# xmcd CD database file
# Generated: ven lug 25 15:58:37 2003 by KSCD
# 
# Track frame offsets:
#       150
#       14630
#       37122
#       57840
#       75718
#       93528
#       117431
#       136571
#       159078
#       177177
#
# Disc length: 2697 seconds
#
# Revision: 7
# Processed by: cddbd v1.4PL0 Copyright (c) Steve Scherf et al.
# Submitted via: Kscd 1.3.3
#
DISCID=780a870a
DTITLE=Macy Gray - On How Life Is
DYEAR=1999
DGENRE=R&B
TTITLE0=Why Didn't You Call Me
TTITLE1=Do Something
TTITLE2=Caligula
TTITLE3=I Try
TTITLE4=Sex-O-Matic Venus Freak
TTITLE5=I Can't Wait To Meetchu
TTITLE6=Still
TTITLE7=I've Commited Murder
TTITLE8=A Moment To Myself
TTITLE9=The Letter
EXTD=YEAR: 1999 ID3G: 14
EXTT0=
EXTT1=
EXTT2=
EXTT3=
EXTT4=
EXTT5=
EXTT6=
EXTT7=
EXTT8=
EXTT9=
PLAYORDER=
